<svg xmlns="http://www.w3.org/2000/svg" version="1.1" xmlns:xlink="http://www.w3.org/1999/xlink" xmlns:svgjs="http://svgjs.dev/svgjs" width="2000" height="1500" viewBox="0 0 2000 1500"><rect width="2000" height="1500" fill="#000000"></rect><g transform="matrix(0.75,0,0,0.75,249.090909090909,558.605802982294)"><svg viewBox="0 0 396 101" data-background-color="#000000" preserveAspectRatio="xMidYMid meet" height="510" width="2000" xmlns="http://www.w3.org/2000/svg" xmlns:xlink="http://www.w3.org/1999/xlink"><g id="tight-bounds" transform="matrix(1,0,0,1,0.2400000000000091,0.0380755523877383)"><svg viewBox="0 0 395.52 100.92384889522452" height="100.92384889522452" width="395.52"><g><svg viewBox="0 0 395.52 100.92384889522452" height="100.92384889522452" width="395.52"><g><svg viewBox="0 0 395.52 100.92384889522452" height="100.92384889522452" width="395.52"><g id="textblocktransform"><svg viewBox="0 0 395.52 100.92384889522452" height="100.92384889522452" width="395.52" id="textblock"><g><svg viewBox="0 0 395.52 100.92384889522452" height="100.92384889522452" width="395.52"><g transform="matrix(1,0,0,1,0,0)"><svg width="395.52" viewBox="0.1 -35.05 140.29 35.8" height="100.92384889522452" data-palette-color="url(#7fc81df3-0f0b-480c-96c5-76142c749a35)"></svg></g></svg></g></svg></g></svg></g><g></g></svg></g><defs></defs><mask id="ec3a5490-9aba-41fd-bedb-3b574b3ef901"><g id="SvgjsG4765"><svg viewBox="0 0 395.52 100.92384889522452" height="100.92384889522452" width="395.52"><g><svg viewBox="0 0 395.52 100.92384889522452" height="100.92384889522452" width="395.52"><g><svg viewBox="0 0 395.52 100.92384889522452" height="100.92384889522452" width="395.52"><g id="SvgjsG4764"><svg viewBox="0 0 395.52 100.92384889522452" height="100.92384889522452" width="395.52" id="SvgjsSvg4763"><g><svg viewBox="0 0 395.52 100.92384889522452" height="100.92384889522452" width="395.52"><g transform="matrix(1,0,0,1,0,0)"><svg width="395.52" viewBox="0.1 -35.05 140.29 35.8" height="100.92384889522452" data-palette-color="url(#7fc81df3-0f0b-480c-96c5-76142c749a35)"><path d="M24.45 0L0.1 0 0.2-0.5 1.15-0.8Q2.95-1.5 3.25-3.3L3.25-3.3 5.95-17.5Q6.45-20.15 7-23.38 7.55-26.6 8.05-29.5L8.05-29.5Q8.4-31.5 6.5-32.25L6.5-32.25 6-32.5 6.1-33 28.65-33 27.4-24.3 26.9-24.3 25.9-28.9Q25.55-30.5 24.65-31.25 23.75-32 22-32L22-32 15.45-32 12.7-17.5 17.3-17.5Q19.55-17.5 20.7-19.3L20.7-19.3 22.35-21.8 22.85-21.8 21.05-12.25 20.55-12.25 19.95-14.25Q19.3-16.5 16.95-16.5L16.95-16.5 12.5-16.5Q11.85-12.85 11.1-8.8 10.35-4.75 9.75-1L9.75-1 17.8-1Q19.35-1 20.45-1.63 21.55-2.25 22.6-3.75L22.6-3.75 25.95-8.7 26.45-8.7 24.45 0ZM33.45 0.75L33.45 0.75Q31.8 0.75 30.82-0.1 29.85-0.95 29.85-2.55L29.85-2.55Q29.85-3.45 30.05-4.73 30.25-6 30.65-8L30.65-8 33.5-21.8Q33.9-23.7 34.17-25.25 34.45-26.8 34.8-28.75L34.8-28.75Q35.15-30.75 33.2-31.45L33.2-31.45 32.35-31.75 32.45-32.25 42.25-35.05 42.55-34.7 36.4-5.7Q36.25-4.95 36.15-4.38 36.05-3.8 36.05-3.4L36.05-3.4Q36.05-2.3 37-2.3L37-2.3Q38.25-2.3 40.65-4.55L40.65-4.55 41.15-4.15Q39.9-2.3 38-0.78 36.1 0.75 33.45 0.75ZM49.75 0.75L49.75 0.75Q46.59 0.75 44.65-0.5 42.7-1.75 42.7-4.05L42.7-4.05Q42.7-5.25 43.55-6.15 44.4-7.05 45.74-7.05L45.74-7.05Q48.25-7.05 48.84-4L48.84-4 49.15-2.6Q49.4-1.55 49.77-0.9 50.15-0.25 51.25-0.25L51.25-0.25Q52.5-0.25 53.45-1.3 54.4-2.35 54.4-4.2L54.4-4.2Q54.4-5.6 53.52-6.9 52.65-8.2 50.59-9.75L50.59-9.75Q48.55-11.35 47.3-13.08 46.05-14.8 46.05-17.2L46.05-17.2Q46.05-19.3 47.12-21.03 48.2-22.75 50.25-23.78 52.3-24.8 55.09-24.8L55.09-24.8Q58.34-24.8 60.22-23.5 62.09-22.2 62.09-20.15L62.09-20.15Q62.09-19.05 61.45-18.32 60.8-17.6 59.5-17.6L59.5-17.6Q57.09-17.6 56.25-20.5L56.25-20.5 55.75-21.9Q55.5-22.9 55.15-23.3 54.8-23.7 54.05-23.7L54.05-23.7Q53.25-23.7 52.4-22.83 51.55-21.95 51.55-20.05L51.55-20.05Q51.55-18.25 52.62-16.78 53.7-15.3 55.84-13.7L55.84-13.7Q58.05-12.05 59.07-10.5 60.09-8.95 60.09-6.75L60.09-6.75Q60.09-4.7 58.89-3 57.7-1.3 55.4-0.28 53.09 0.75 49.75 0.75ZM69.14 0.75L69.14 0.75Q67.74 0.75 66.49 0.1 65.24-0.55 64.47-2.05 63.69-3.55 63.69-6L63.69-6Q63.69-8.65 64.74-11.33 65.79-14 67.54-16.43 69.29-18.85 71.44-20.73 73.59-22.6 75.89-23.7 78.19-24.8 80.24-24.8L80.24-24.8Q81.24-24.8 82.12-24.43 82.99-24.05 83.79-23.4L83.79-23.4 87.84-24.95 88.24-24.7 83.89-5.55Q83.54-4.15 83.54-3.25L83.54-3.25Q83.54-2.2 84.49-2.2L84.49-2.2Q85.19-2.2 86.12-2.85 87.04-3.5 88.24-4.6L88.24-4.6 88.64-4.2Q87.89-3 86.77-1.88 85.64-0.75 84.27 0 82.89 0.75 81.34 0.75L81.34 0.75Q79.64 0.75 78.59-0.28 77.54-1.3 77.54-3.45L77.54-3.45Q77.54-4.15 77.59-4.8L77.59-4.8Q75.59-2.55 73.37-0.9 71.14 0.75 69.14 0.75ZM69.59-8.25L69.59-8.25Q69.59-5.6 70.47-4.42 71.34-3.25 72.79-3.25L72.79-3.25Q73.99-3.25 75.19-4 76.39-4.75 77.79-6.15L77.79-6.15Q77.89-6.75 78.04-7.4L78.04-7.4 81.19-21.8Q80.54-22.6 79.64-22.9 78.74-23.2 78.04-23.2L78.04-23.2Q75.89-23.2 73.54-20.65L73.54-20.65Q71.69-18.6 70.64-15.25 69.59-11.9 69.59-8.25ZM96.94 0L91.19 0.4 90.54-0.15 95.04-21.8Q95.39-23.55 95.74-25.25 96.09-26.95 96.39-28.7L96.39-28.7Q96.69-30.8 94.79-31.45L94.79-31.45 93.94-31.8 94.04-32.25 103.64-35.05 103.99-34.7 98.99-10.7Q98.34-7.65 97.86-5.18 97.39-2.7 96.94 0L96.94 0ZM112.84 0L104.74 0Q104.04-0.7 103.44-2.15 102.84-3.6 102.29-5L102.29-5 99.49-12.7 111.94-24.5Q113.29-24.45 114.24-23.65 115.19-22.85 115.19-21.4L115.19-21.4Q115.19-20.1 114.14-19.23 113.09-18.35 111.44-17.55L111.44-17.55 101.49-12.85 110.44-2.55Q110.99-1.95 111.44-1.55 111.89-1.15 112.54-0.75L112.54-0.75 112.94-0.5 112.84 0ZM120.89 0.75L120.89 0.75Q119.49 0.75 118.24 0.1 116.99-0.55 116.21-2.05 115.44-3.55 115.44-6L115.44-6Q115.44-8.65 116.49-11.33 117.54-14 119.29-16.43 121.04-18.85 123.19-20.73 125.34-22.6 127.64-23.7 129.94-24.8 131.99-24.8L131.99-24.8Q132.99-24.8 133.86-24.43 134.74-24.05 135.54-23.4L135.54-23.4 139.59-24.95 139.99-24.7 135.64-5.55Q135.29-4.15 135.29-3.25L135.29-3.25Q135.29-2.2 136.24-2.2L136.24-2.2Q136.94-2.2 137.86-2.85 138.79-3.5 139.99-4.6L139.99-4.6 140.39-4.2Q139.64-3 138.51-1.88 137.39-0.75 136.01 0 134.64 0.75 133.09 0.75L133.09 0.75Q131.39 0.75 130.34-0.28 129.29-1.3 129.29-3.45L129.29-3.45Q129.29-4.15 129.34-4.8L129.34-4.8Q127.34-2.55 125.11-0.9 122.89 0.75 120.89 0.75ZM121.34-8.25L121.34-8.25Q121.34-5.6 122.21-4.42 123.09-3.25 124.54-3.25L124.54-3.25Q125.74-3.25 126.94-4 128.14-4.75 129.54-6.15L129.54-6.15Q129.64-6.75 129.79-7.4L129.79-7.4 132.94-21.8Q132.29-22.6 131.39-22.9 130.49-23.2 129.79-23.2L129.79-23.2Q127.64-23.2 125.29-20.65L125.29-20.65Q123.44-18.6 122.39-15.25 121.34-11.9 121.34-8.25Z" opacity="1" transform="matrix(1,0,0,1,0,0)" fill="white" class="wordmark-text-0" id="SvgjsPath4762"></path></svg></g></svg></g></svg></g></svg></g><g></g></svg></g><defs><mask></mask></defs></svg><rect width="395.52" height="100.92384889522452" fill="black" stroke="none" visibility="hidden"></rect></g></mask><linearGradient x1="0" x2="1" y1="0.5" y2="0.5" id="7fc81df3-0f0b-480c-96c5-76142c749a35"><stop stop-color="#fff72e" offset="0"></stop><stop stop-color="#deae29" offset="1"></stop></linearGradient><rect width="395.52" height="100.92384889522452" fill="url(#7fc81df3-0f0b-480c-96c5-76142c749a35)" mask="url(#ec3a5490-9aba-41fd-bedb-3b574b3ef901)" data-fill-palette-color="primary"></rect></svg><rect width="395.52" height="100.92384889522452" fill="none" stroke="none" visibility="hidden"></rect></g></svg></g></svg>