<svg xmlns="http://www.w3.org/2000/svg" version="1.1" xmlns:xlink="http://www.w3.org/1999/xlink" xmlns:svgjs="http://svgjs.dev/svgjs" width="2000" height="1500" viewBox="0 0 2000 1500"><rect width="2000" height="1500" fill="#000000"></rect><g transform="matrix(0.75,0,0,0.75,249.090909090909,296.9306213553849)"><svg viewBox="0 0 396 239" data-background-color="#000000" preserveAspectRatio="xMidYMid meet" height="1207" width="2000" xmlns="http://www.w3.org/2000/svg" xmlns:xlink="http://www.w3.org/1999/xlink"><g id="tight-bounds" transform="matrix(1,0,0,1,0.2400000000000091,0.11732283464567672)"><svg viewBox="0 0 395.52 238.76535433070865" height="238.76535433070865" width="395.52"><g><svg viewBox="0 0 395.52 238.76535433070865" height="238.76535433070865" width="395.52"><g><svg viewBox="0 0 395.52 238.76535433070865" height="238.76535433070865" width="395.52"><g id="textblocktransform"><svg viewBox="0 0 395.52 238.76535433070865" height="238.76535433070865" width="395.52" id="textblock"><g><svg viewBox="0 0 395.52 238.76535433070865" height="238.76535433070865" width="395.52"><g transform="matrix(1,0,0,1,0,0)"><svg width="395.52" viewBox="0.05 -41 76.2 46" height="238.76535433070865" data-palette-color="url(#ab4a2cf1-0ee8-407f-9004-e89c9a8594d7)"><g class="wordmark-text-0" data-fill-palette-color="primary" id="text-0"></g></svg></g></svg></g></svg></g></svg></g></svg></g><defs></defs><mask id="fc410f8c-c693-4af3-bf50-8f546093b7f7"><g id="SvgjsG1740"><svg viewBox="0 0 395.52 238.76535433070865" height="238.76535433070865" width="395.52"><g><svg viewBox="0 0 395.52 238.76535433070865" height="238.76535433070865" width="395.52"><g><svg viewBox="0 0 395.52 238.76535433070865" height="238.76535433070865" width="395.52"><g id="SvgjsG1739"><svg viewBox="0 0 395.52 238.76535433070865" height="238.76535433070865" width="395.52" id="SvgjsSvg1738"><g><svg viewBox="0 0 395.52 238.76535433070865" height="238.76535433070865" width="395.52"><g transform="matrix(1,0,0,1,0,0)"><svg width="395.52" viewBox="0.05 -41 76.2 46" height="238.76535433070865" data-palette-color="url(#ab4a2cf1-0ee8-407f-9004-e89c9a8594d7)"><g class="wordmark-text-0" data-fill-palette-color="primary" id="SvgjsG1737"><path d="M7.8-24.05L7.8-24.05Q4.25-24.05 4.25-17.45L4.25-17.45 4.25-17.1Q4.25-16.45 3.95-16.45L3.95-16.45Q3.2-16.45 2.83-18.25 2.45-20.05 2.45-21.3L2.45-21.3Q2.45-23.35 3.38-24.95 4.3-26.55 6.25-26.55L6.25-26.55Q10.1-26.55 13.65-22.05L13.65-22.05Q16.65-25.55 20.08-29.13 23.5-32.7 25.4-34.5L25.4-34.5 27.3-36.35Q30.4-41 32.4-41L32.4-41Q32.9-41 32.9-40.55L32.9-40.55Q32.9-40.25 32.7-39.85L32.7-39.85Q28.3-31.2 24.65-20.35L24.65-20.35Q20.05-6.55 20.05 0.8L20.05 0.8Q20.05 3.1 20.6 4.15L20.6 4.15Q20.8 4.4 20.8 4.65L20.8 4.65Q20.8 5 20.2 5L20.2 5Q18.85 5 17.95 4.33 17.05 3.65 16.68 2.55 16.3 1.45 16.15 0.58 16-0.3 16-1.2L16-1.2Q16-2.7 16.55-5.65 17.1-8.6 17.1-9.95L17.1-9.95Q17.1-11.95 16.23-14.68 15.35-17.4 13.9-19.65L13.9-19.65Q12.3-17.45 10.98-15.25 9.65-13.05 9.1-12L9.1-12 8.6-10.9Q6.8-7.2 5.05-4.15 3.3-1.1 2.45 0.1L2.45 0.1 1.6 1.25Q1.05 1.9 0.6 1.9L0.6 1.9Q0.05 1.9 0.05 0.75L0.05 0.75Q0.2-6.3 12.85-21.1L12.85-21.1Q10.4-24.05 7.8-24.05ZM25.5-32.1L24.95-31.9Q19.45-27.1 14.65-20.65L14.65-20.65Q16.75-17.45 17.9-13.35L17.9-13.35Q18.05-12.9 18.15-12.9L18.15-12.9 18.4-13.35Q19.65-17.6 21.43-22.18 23.2-26.75 24.35-29.2L24.35-29.2 25.5-31.6Q25.65-31.9 25.65-32 25.65-32.1 25.5-32.1L25.5-32.1ZM43.25-20.7L43.25-20.7Q40.15-20.55 36.35-20.55L36.35-20.55 35.75-20.55Q28.7-7.75 27.35-3.2L27.35-3.2Q27.15-2.6 27.15-2.1L27.15-2.1Q27.15-0.6 29.8-0.6L29.8-0.6Q30.9-0.6 32.2-1.03 33.5-1.45 35.37-2.53 37.25-3.6 39.6-5.95 41.95-8.3 44.4-11.65L44.4-11.65Q44.7-12.2 45.3-12.2L45.3-12.2Q45.7-12.2 45.7-11.8L45.7-11.8Q45.7-11.7 45.6-11.4L45.6-11.4Q43.2-5.25 39.5-0.4L39.5-0.4Q39.2 0.3 38 0.5L38 0.5Q33.9 0.7 29.35 0.7L29.35 0.7Q24.15 0.7 20.95 0.35L20.95 0.35Q20.35 0.3 20.35-0.35L20.35-0.35Q20.35-0.75 20.55-1.15L20.55-1.15Q23.4-7.55 31.3-20.6L31.3-20.6 29.05-20.65Q28.4-20.65 28.4-21.05 28.4-21.45 28.82-21.78 29.25-22.1 29.7-22.1L29.7-22.1 32.25-22.1 38.3-31.8Q39.05-33.15 39.05-34.25L39.05-34.25Q39.05-35 38.72-35.55 38.4-36.1 38.05-36.3L38.05-36.3 37.7-36.5Q37.25-36.75 37.25-37.05L37.25-37.05Q37.25-37.25 37.42-37.4 37.6-37.55 37.8-37.6L37.8-37.6 38-37.65Q43.15-37.95 48.7-37.95L48.7-37.95Q53.3-37.95 56.1-37.7L56.1-37.7Q56.85-37.7 56.85-37.05L56.85-37.05Q56.85-36.9 56.7-36.5L56.7-36.5Q55.05-32.35 53.35-30L53.35-30Q53.1-29.75 52.8-29.75L52.8-29.75Q52.35-29.75 52.35-30.4L52.35-30.4Q52.6-31.35 52.6-32.45L52.6-32.45Q52.6-36.55 48.5-36.55L48.5-36.55 48.3-36.55Q45.75-36.55 44.65-35.15L44.65-35.15Q42.1-32 37.85-24.3L37.85-24.3Q37.35-23.45 36.6-22.15L36.6-22.15 44.1-22.15Q44.6-22.15 44.6-21.85 44.6-21.55 44.17-21.15 43.75-20.75 43.25-20.7ZM43.14-3.45L43.14-3.45Q43.95-5.45 45.42-8.1 46.89-10.75 47.99-12.4L47.99-12.4 49.09-14Q49.8-15 50.49-15L50.49-15Q51.05-15 51.05-14.45L51.05-14.45 50.89-13.95Q49.09-9.4 49.09-6.1L49.09-6.1Q49.09-3.45 50.27-1.78 51.45-0.1 53.95-0.1L53.95-0.1Q57.7-0.1 59.99-3.38 62.3-6.65 62.3-10.45L62.3-10.45Q62.3-13.7 60.07-19.73 57.84-25.75 57.84-27.9L57.84-27.9Q57.84-32.55 61.82-35.38 65.8-38.2 70.55-38.2L70.55-38.2Q71.39-38.2 72.22-38.1 73.05-38 74.05-37.77 75.05-37.55 75.64-37.05 76.25-36.55 76.25-35.8L76.25-35.8Q76.25-34.8 74.84-32.4 73.44-30 72.5-28.75L72.5-28.75Q72.14-28.5 71.89-28.5L71.89-28.5Q71.55-28.5 71.55-29.1L71.55-29.1Q71.55-30.5 71.84-32.9L71.84-32.9Q71.84-36.8 68.84-36.8L68.84-36.8Q66.3-36.8 64.52-35.05 62.75-33.3 62.75-30.8L62.75-30.8Q62.75-27.5 65.07-21.6 67.39-15.7 67.39-12.5L67.39-12.5Q67.39-6.5 62.67-2.63 57.95 1.25 52.05 1.25L52.05 1.25Q51.05 1.25 49.64 1.05 48.24 0.85 46.7 0.43 45.14 0 44.07-0.83 42.99-1.65 42.99-2.7L42.99-2.7Q42.99-3.1 43.14-3.45Z" fill="white"></path></g></svg></g></svg></g></svg></g></svg></g></svg></g><defs><mask></mask></defs></svg><rect width="395.52" height="238.76535433070865" fill="black" stroke="none" visibility="hidden"></rect></g></mask><linearGradient x1="0.054" x2="0.941" y1="0.5" y2="0.5" id="ab4a2cf1-0ee8-407f-9004-e89c9a8594d7"><stop stop-color="#864d25" offset="0"></stop><stop stop-color="#f1c4b3" offset="0.498"></stop><stop stop-color="#864d25" offset="1"></stop></linearGradient><rect width="395.52" height="238.76535433070865" fill="url(#ab4a2cf1-0ee8-407f-9004-e89c9a8594d7)" mask="url(#fc410f8c-c693-4af3-bf50-8f546093b7f7)" data-fill-palette-color="primary"></rect></svg><rect width="395.52" height="238.76535433070865" fill="none" stroke="none" visibility="hidden"></rect></g></svg></g></svg>